<svg xmlns="http://www.w3.org/2000/svg" width="1600" height="900" viewBox="0 0 1600 900" fill="none">
<rect width="1600" height="900" fill="#120B10"/>
<g opacity="0.95">
<rect x="110" y="120" width="420" height="170" rx="24" fill="#3F1D16" stroke="#FB923C"/>
<rect x="190" y="150" width="210" height="24" rx="12" fill="#FED7AA" fill-opacity="0.35"/>
<rect x="190" y="195" width="280" height="18" rx="9" fill="#FED7AA" fill-opacity="0.18"/>
<rect x="190" y="228" width="180" height="18" rx="9" fill="#FED7AA" fill-opacity="0.18"/>
</g>
<g transform="rotate(-8 840 340)">
<rect x="650" y="120" width="470" height="240" rx="26" fill="#1F2937" stroke="#475569"/>
<rect x="700" y="172" width="340" height="18" rx="9" fill="#94A3B8" fill-opacity="0.26"/>
<rect x="700" y="212" width="250" height="18" rx="9" fill="#94A3B8" fill-opacity="0.18"/>
<rect x="700" y="256" width="360" height="56" rx="18" fill="#0B1220"/>
</g>
<g transform="rotate(7 540 640)">
<rect x="230" y="470" width="620" height="260" rx="28" fill="#0F172A" stroke="#334155"/>
<rect x="300" y="540" width="500" height="22" rx="11" fill="#CBD5E1" fill-opacity="0.18"/>
<rect x="300" y="585" width="420" height="22" rx="11" fill="#CBD5E1" fill-opacity="0.12"/>
<rect x="300" y="640" width="220" height="52" rx="18" fill="#F97316" fill-opacity="0.8"/>
</g>
<g transform="rotate(-5 1180 660)">
<rect x="970" y="470" width="420" height="220" rx="28" fill="#111827" stroke="#334155"/>
<rect x="1030" y="540" width="280" height="22" rx="11" fill="#F8FAFC" fill-opacity="0.2"/>
<rect x="1030" y="585" width="180" height="22" rx="11" fill="#F8FAFC" fill-opacity="0.12"/>
<rect x="1030" y="628" width="140" height="44" rx="16" fill="#EF4444" fill-opacity="0.85"/>
</g>
</svg>