<svg xmlns="http://www.w3.org/2000/svg" width="1600" height="900" viewBox="0 0 1600 900" fill="none">
<rect width="1600" height="900" fill="#06131F"/>
<circle cx="1260" cy="170" r="220" fill="#22C55E" fill-opacity="0.12"/>
<circle cx="210" cy="180" r="180" fill="#F97316" fill-opacity="0.15"/>
<rect x="480" y="70" width="640" height="760" rx="44" fill="#0F172A" stroke="#334155" stroke-width="2"/>
<rect x="560" y="150" width="480" height="520" rx="34" fill="url(#g2)"/>
<rect x="610" y="236" width="180" height="22" rx="11" fill="#FFFFFF" fill-opacity="0.35"/>
<rect x="610" y="286" width="320" height="66" rx="20" fill="#FFFFFF" fill-opacity="0.12"/>
<rect x="610" y="390" width="380" height="20" rx="10" fill="#FFFFFF" fill-opacity="0.22"/>
<rect x="610" y="538" width="170" height="78" rx="22" fill="#22C55E"/>
<rect x="820" y="538" width="170" height="78" rx="22" fill="#EF4444"/>
<path d="M1210 260L1320 260" stroke="#38BDF8" stroke-width="18" stroke-linecap="round"/>
<path d="M280 580L390 580" stroke="#F97316" stroke-width="18" stroke-linecap="round"/>
<path d="M1260 190L1260 330" stroke="#38BDF8" stroke-width="18" stroke-linecap="round"/>
<path d="M335 510L335 650" stroke="#F97316" stroke-width="18" stroke-linecap="round"/>
<defs><linearGradient id="g2" x1="560" y1="150" x2="1040" y2="670" gradientUnits="userSpaceOnUse"><stop stop-color="#0F3D2E"/><stop offset="1" stop-color="#142235"/></linearGradient></defs>
</svg>